<svg xmlns="http://www.w3.org/2000/svg" viewBox="0 0 1159.45 1178.45"><defs><style>.cls-1{fill:#89726f;}.cls-2{fill:#dcdcdc;}.cls-3{font-size:125px;}.cls-3,.cls-4{font-family:FelixTitlingMT, Felix Titling;}.cls-4{font-size:150px;}.cls-5{fill:#722f37;}</style></defs><g id="Moneda"><circle id="Externo" class="cls-1" cx="579.72" cy="579.72" r="579.72"/><circle id="Interno" class="cls-2" cx="579.72" cy="579.72" r="565.13"/><text id="Tienda_de_vinos" data-name="Tienda de vinos" class="cls-3" transform="matrix(0.51, -0.86, 0.86, 0.51, 153.9, 390.7)">t</text><text class="cls-3" transform="matrix(0.6, -0.8, 0.8, 0.6, 193.15, 326.83)">i</text><text class="cls-3" transform="matrix(0.68, -0.73, 0.73, 0.68, 211.77, 300.7)">e</text><text class="cls-3" transform="matrix(0.8, -0.6, 0.6, 0.8, 256.65, 250.61)">n</text><text class="cls-3" transform="matrix(0.91, -0.41, 0.41, 0.91, 336.17, 190.53)">d</text><text class="cls-3" transform="matrix(0.97, -0.24, 0.24, 0.97, 424.61, 150.38)">a</text><text class="cls-3" transform="matrix(0.99, -0.11, 0.11, 0.99, 507.94, 131.49)"> </text><text class="cls-3" transform="matrix(1, 0.03, -0.03, 1, 543.33, 124.92)">d</text><text class="cls-3" transform="matrix(0.98, 0.21, -0.21, 0.98, 648, 130.08)">e</text><text class="cls-3" transform="matrix(0.95, 0.32, -0.32, 0.95, 713.57, 145.27)"> </text><text class="cls-3" transform="matrix(0.9, 0.44, -0.44, 0.9, 748.22, 155.25)">v</text><text class="cls-3" transform="matrix(0.84, 0.55, -0.55, 0.84, 824.24, 194.24)">i</text><text class="cls-3" transform="matrix(0.75, 0.66, -0.66, 0.75, 852.39, 209.82)">n</text><text class="cls-3" transform="matrix(0.6, 0.8, -0.8, 0.6, 927.51, 275.19)">o</text><text class="cls-3" transform="matrix(0.46, 0.89, -0.89, 0.46, 986.64, 356.94)">s</text><text id="Nombre" class="cls-4" transform="translate(92.42 824.19) rotate(59.02)">L</text><text class="cls-4" transform="translate(142.66 908.58) rotate(46.63)">O</text><text class="cls-4" transform="matrix(0.85, 0.52, -0.52, 0.85, 246.22, 1013.05)">R</text><text class="cls-4" transform="translate(367.7 1082.03) rotate(18.6)">E</text><text class="cls-4" transform="translate(466.34 1115.55) rotate(4.92)">M</text><text class="cls-4" transform="translate(616.72 1122.46) rotate(-6.12)"> </text><text class="cls-4" transform="translate(668.6 1116.4) rotate(-11.39)">I</text><text class="cls-4" transform="matrix(0.95, -0.33, 0.33, 0.95, 719.16, 1106.74)">P</text><text class="cls-4" transform="translate(808.87 1074.07) rotate(-28.7)">S</text><text class="cls-4" transform="matrix(0.76, -0.65, 0.65, 0.76, 888.95, 1030.31)">U</text><text class="cls-4" transform="translate(992.89 939.07) rotate(-55.89)">M</text></g><g id="Copa"><g id="Grupo"><g id="Base"><path d="M799,1440.94H961a15.76,15.76,0,0,0,15.23-11.42,26.91,26.91,0,0,0,0-13.84A15.77,15.77,0,0,0,961,1404.26H799a15.77,15.77,0,0,0-15.23,11.42,26.91,26.91,0,0,0,0,13.84A15.76,15.76,0,0,0,799,1440.94Z" transform="translate(-300.28 -500.28)"/><path d="M880,1406.14c6.43,0,8.14-2,8.14-2V1381H871.86v23.21S873.57,1406.14,880,1406.14Z" transform="translate(-300.28 -500.28)"/><polygon points="587.87 880.71 584.7 879.06 574.74 879.06 571.58 880.71 587.87 880.71"/><polygon points="577.6 799.24 588.91 803.46 588.91 797.81 586.02 792.14 583.76 790.74 571.48 786.1 572.01 792.89 573.68 796.74 576.35 798.59 577.6 799.24"/><polygon points="577.6 765.37 588.91 769.59 588.91 763.95 586.02 758.28 583.76 756.88 571.48 752.23 572.01 759.03 573.68 762.87 576.35 764.72 577.6 765.37"/><polygon points="577.6 731.5 588.91 735.73 588.91 730.08 586.02 724.41 583.76 723.01 571.48 718.37 572.01 725.16 573.68 729.01 576.35 730.86 577.6 731.5"/><polygon points="577.6 833.1 588.91 837.32 588.91 831.68 586.02 826.01 583.76 824.61 571.48 819.97 572.01 826.76 573.68 830.61 576.35 832.46 577.6 833.1"/><path d="M867.66,1325.66h0c3.27,5.36,10.22,7.72,10.22,7.72-4.4-3.9-5-10.73.76-14.06l12-6.91a10,10,0,0,0,3.66-13.67C891,1293.38,884,1291,884,1291c4.4,3.89,5,10.73-.76,14.06l-12,6.91A10,10,0,0,0,867.66,1325.66Z" transform="translate(-300.28 -500.28)"/><path d="M867.66,1291.79h0c3.27,5.36,10.22,7.72,10.22,7.72-4.4-3.89-5-10.73.76-14.06l12-6.9a10,10,0,0,0,3.66-13.67c-3.27-5.37-10.22-7.73-10.22-7.73,4.4,3.9,5,10.74-.76,14.07l-12,6.9A10,10,0,0,0,867.66,1291.79Z" transform="translate(-300.28 -500.28)"/><path d="M867.66,1257.92h0c3.27,5.37,10.22,7.73,10.22,7.73-4.4-3.9-5-10.73.76-14.06l12-6.91a10,10,0,0,0,3.66-13.67c-3.27-5.36-10.22-7.72-10.22-7.72,4.4,3.89,5,10.73-.76,14.06l-12,6.9A10,10,0,0,0,867.66,1257.92Z" transform="translate(-300.28 -500.28)"/><path d="M867.66,1224.06h0c3.27,5.36,10.22,7.72,10.22,7.72-4.4-3.89-5-10.73.76-14.06l12-6.91c4.78-2.76,43.18-28.47,40.42-33.26-3.27-5.36-51.51,3.46-51.51,3.46,4.4,3.9,9.54,19.15,3.77,22.47l-12,6.91A10,10,0,0,0,867.66,1224.06Z" transform="translate(-300.28 -500.28)"/><path d="M885,1379.34v-24.89c.16-3.84.88-5.41,3.68-7h0l1.93-1.11a10,10,0,0,0,3.66-13.67c-3.27-5.37-10.22-7.73-10.22-7.73,3.47,3.08,4.58,8,2.05,11.56a8.75,8.75,0,0,1-2.81,2.51l-2.32,1.34h0a15.84,15.84,0,0,0-1.68,1l-.12.08a8.11,8.11,0,0,0-4.14,7v31Z" transform="translate(-300.28 -500.28)"/></g><g id="Vino"><path class="cls-5" d="M1008.94,899.24c0-1.33-3.38,13.39-3.81,14.68-35.35,104-130.86,133.26-151.24,134.47a.61.61,0,0,1-.24-1.19c52.06-19,50.67-74.26,43-92.32a.77.77,0,0,0-1.47.34c2,76.14-102.7,91.8-136.38,34.32a1,1,0,0,0-1.92.53c2.45,89.22,74.63,203.38,132.3,194.5,43.4-6.67,103.86-105.33,110.19-182.15C999.62,999.49,1009.39,947.29,1008.94,899.24Z" transform="translate(-300.28 -500.28)"/><path class="cls-5" d="M793.1,1009.46a.51.51,0,0,0,.55-.85c-6.65-6-23.52-24.71-13.72-53.07,9-26.12-24.8-30.72-21.21,3.68C762.2,992.45,784.78,1005.68,793.1,1009.46Z" transform="translate(-300.28 -500.28)"/><path class="cls-5" d="M943.73,905.75a.51.51,0,0,0,1,0c.78-8.13,4-26.37,17.46-38.19,16.52-14.51-2.31-28.47-14.31-10.58C939,870.29,942.07,895.79,943.73,905.75Z" transform="translate(-300.28 -500.28)"/><path class="cls-5" d="M905.3,1007.87c9.05-10,35-42.45,23.42-72-10.19-26-36.64-15.91-26.57,7.63,13.51,31.58,5.84,55.57,2.3,63.78A.51.51,0,0,0,905.3,1007.87Z" transform="translate(-300.28 -500.28)"/><path class="cls-5" d="M916.85,1015.75c17.44-12.08,69.57-52.88,71.88-106.1,2-47-37.8-42.67-38.55.19-1,57.5-24.79,92.93-34.11,104.64C915.47,1015.24,916.1,1016.27,916.85,1015.75Z" transform="translate(-300.28 -500.28)"/><path class="cls-5" d="M921.53,875.46c7.22,2.93,11.45,9.09,13.41,12.72a.51.51,0,0,0,1-.32c-.77-4.65-3-13.42-9.47-19.4C919.1,861.65,913.71,872.29,921.53,875.46Z" transform="translate(-300.28 -500.28)"/><path class="cls-5" d="M801,1012.66a.51.51,0,0,0,1,.05c1.09-5.3,2.48-16.44-2.38-26.12-5.35-10.63-15.77-1-8.37,5.76C798.32,998.86,800.37,1007.93,801,1012.66Z" transform="translate(-300.28 -500.28)"/><path class="cls-5" d="M984,869.61c7.78,8.36,9.54,19.56,9.92,25.08a.51.51,0,0,0,1,.09c1.47-6.06,3.71-19.45-1.35-31.47C988.16,850.37,976.11,861.1,984,869.61Z" transform="translate(-300.28 -500.28)"/><path class="cls-5" d="M918.59,906.16c12.69,8.72,16.91,22,18.34,27.79a.51.51,0,0,0,1-.06c.88-7.07,2.09-26.41-7.42-37.35C917.86,882,902.33,895,918.59,906.16Z" transform="translate(-300.28 -500.28)"/></g><path id="Copa-2" data-name="Copa" d="M1010,918.8C1010,1076,951.8,1203.48,880,1203.48c-70.22,0-127.43-121.78-130-274.14,13.26,120,67.62,250.72,130,250.72,70.5,0,125.9-155.44,128.9-298.82Q1010,899.69,1010,918.8Z" transform="translate(-300.28 -500.28)"/></g></g></svg>