<svg id="Layer_1" data-name="Layer 1" xmlns="http://www.w3.org/2000/svg" viewBox="0 0 1159.44 1159.44"><defs><style>.cls-1{fill:#89726f;}.cls-2{fill:#dcdcdc;}.cls-3{fill:#722f37;}.cls-4{font-size:200px;}.cls-4,.cls-5{fill:#424242;font-family:Vogue-Regular, Vogue;}.cls-5{font-size:150px;}</style></defs><g id="Moneda"><circle id="Externo" class="cls-1" cx="579.72" cy="579.72" r="579.72"/><circle id="Interno" class="cls-2" cx="579.72" cy="579.72" r="565.13"/></g><g id="Copa"><g id="Grupo"><g id="Base"><path d="M498.72,875.92h162A15.74,15.74,0,0,0,676,864.5a26.84,26.84,0,0,0,0-13.84,15.75,15.75,0,0,0-15.23-11.42h-162a15.77,15.77,0,0,0-15.23,11.42,27.05,27.05,0,0,0,0,13.84A15.76,15.76,0,0,0,498.72,875.92Z"/><path d="M579.72,841.12c6.43,0,8.14-2,8.14-2V816H571.58v23.21S573.29,841.12,579.72,841.12Z"/><polygon points="587.88 815.97 584.71 814.32 574.75 814.32 571.59 815.97 587.88 815.97"/><polygon points="577.61 734.5 588.91 738.72 588.91 733.07 586.02 727.4 583.76 726 571.49 721.36 572.01 728.15 573.68 732 576.36 733.85 577.61 734.5"/><polygon points="577.61 700.63 588.91 704.85 588.91 699.21 586.02 693.54 583.76 692.14 571.49 687.49 572.01 694.29 573.68 698.13 576.36 699.98 577.61 700.63"/><polygon points="577.61 666.76 588.91 670.99 588.91 665.34 586.02 659.67 583.76 658.27 571.49 653.63 572.01 660.42 573.68 664.27 576.36 666.12 577.61 666.76"/><polygon points="577.61 768.36 588.91 772.58 588.91 766.94 586.02 761.27 583.76 759.87 571.49 755.23 572.01 762.02 573.68 765.87 576.36 767.72 577.61 768.36"/><path d="M567.38,760.64h0c3.27,5.36,10.22,7.72,10.22,7.72-4.4-3.9-5-10.73.76-14.06l12-6.91A10,10,0,0,0,594,733.73h0c-3.3-5.36-10.3-7.74-10.3-7.74,4.4,3.89,5,10.73-.76,14.06L571,747a10,10,0,0,0-3.58,13.68Z"/><path d="M567.38,726.77h0c3.27,5.36,10.22,7.72,10.22,7.72-4.4-3.89-5-10.73.76-14.06l12-6.9A10,10,0,0,0,594,699.87h0c-3.27-5.37-10.22-7.73-10.22-7.73,4.4,3.9,5,10.74-.76,14.07l-12,6.9a10,10,0,0,0-3.66,13.66Z"/><path d="M567.38,692.9h0c3.27,5.37,10.22,7.73,10.22,7.73-4.4-3.9-5-10.73.76-14.06l12-6.91A10,10,0,0,0,594,666h0c-3.27-5.36-10.22-7.72-10.22-7.72,4.4,3.89,5,10.73-.76,14.06l-12,6.9a10,10,0,0,0-3.66,13.66Z"/><path d="M567.38,659h0c3.27,5.36,10.22,7.72,10.22,7.72-4.4-3.89-5-10.73.76-14.06l12-6.91c4.78-2.76,43.18-28.47,40.42-33.26-3.27-5.36-51.51,3.46-51.51,3.46,4.4,3.9,9.54,19.15,3.77,22.47l-12,6.91A10,10,0,0,0,567.38,659Z"/><path d="M584.72,814.32V789.43c.16-3.84.88-5.41,3.68-7h0l1.93-1.11A10,10,0,0,0,594,767.66h0c-3.27-5.37-10.22-7.73-10.22-7.73,3.47,3.08,4.58,8,2.05,11.56A8.67,8.67,0,0,1,583,774l-2.32,1.34h0a15.82,15.82,0,0,0-1.68,1l-.12.08a8.12,8.12,0,0,0-4.14,7v31Z"/></g><g id="Vino"><path class="cls-3" d="M708.66,334.22c0-1.33-3.38,13.39-3.81,14.68C669.51,452.9,574,482.16,553.61,483.37a.61.61,0,0,1-.66-.55.61.61,0,0,1,.43-.64c52-19,50.66-74.26,43-92.32a.78.78,0,0,0-1-.38.76.76,0,0,0-.44.72c2,76.14-102.7,91.8-136.38,34.32a1,1,0,0,0-1.92.53c2.45,89.22,74.63,203.38,132.3,194.5,43.4-6.67,103.86-105.33,110.19-182.15C699.34,434.47,709.11,382.27,708.66,334.22Z"/><path class="cls-3" d="M492.82,444.44a.51.51,0,0,0,.55-.85c-6.65-6-23.52-24.71-13.72-53.07,9-26.12-24.8-30.72-21.21,3.68C461.92,427.43,484.51,440.66,492.82,444.44Z"/><path class="cls-3" d="M643.45,340.73a.51.51,0,0,0,.61.4.5.5,0,0,0,.39-.4c.78-8.13,4-26.37,17.46-38.19C678.43,288,659.6,274.07,647.6,292,638.72,305.27,641.79,330.77,643.45,340.73Z"/><path class="cls-3" d="M605,442.85c9.05-10,35-42.45,23.42-72-10.19-26-36.64-15.91-26.57,7.63,13.51,31.58,5.84,55.57,2.3,63.78a.52.52,0,0,0,.13.72.51.51,0,0,0,.72-.13Z"/><path class="cls-3" d="M616.57,450.73c17.44-12.08,69.57-52.88,71.88-106.1,2-47-37.8-42.67-38.55.19-1,57.5-24.79,92.93-34.11,104.64C615.19,450.22,615.82,451.25,616.57,450.73Z"/><path class="cls-3" d="M621.26,310.44c7.21,2.93,11.45,9.09,13.4,12.72a.53.53,0,0,0,.67.34.52.52,0,0,0,.33-.66c-.77-4.65-3-13.42-9.46-19.4C618.82,296.63,613.43,307.27,621.26,310.44Z"/><path class="cls-3" d="M500.72,447.64a.51.51,0,0,0,.58.43.49.49,0,0,0,.42-.38c1.1-5.3,2.48-16.44-2.38-26.12-5.35-10.63-15.77-1-8.37,5.76C498,433.84,500.09,442.91,500.72,447.64Z"/><path class="cls-3" d="M683.72,304.59c7.79,8.36,9.54,19.56,9.92,25.08a.53.53,0,0,0,.56.47.5.5,0,0,0,.44-.38c1.47-6.06,3.71-19.45-1.35-31.47C687.88,285.35,675.83,296.08,683.72,304.59Z"/><path class="cls-3" d="M618.32,341.14c12.69,8.72,16.9,22,18.34,27.79a.51.51,0,0,0,.62.37.51.51,0,0,0,.38-.43c.88-7.07,2.09-26.41-7.42-37.35C617.58,317,602.05,330,618.32,341.14Z"/></g><path id="Copa-2" d="M709.72,353.78c0,157.2-58.2,284.68-130,284.68-70.21,0-127.43-121.78-130-274.14C463,484.32,517.34,615,579.72,615c70.5,0,125.9-155.44,128.9-298.82Q709.73,334.67,709.72,353.78Z"/></g></g><text class="cls-4" transform="translate(421.73 210) rotate(-15.58)">t</text><text class="cls-4" transform="translate(504.25 180.09) rotate(0.93)">w</text><text class="cls-4" transform="translate(638.88 182.82) rotate(15.15)">S</text><text class="cls-5" transform="translate(72.76 756.02) rotate(66.58)">t</text><text class="cls-5" transform="translate(117.02 853.47) rotate(53.91)">h</text><text class="cls-5" transform="translate(197.02 956.07) rotate(41.03)">e</text><text class="cls-5" transform="matrix(0.86, 0.52, -0.52, 0.86, 278.44, 1022.99)"> </text><text class="cls-5" transform="translate(350.43 1066.54) rotate(19.34)">w</text><text class="cls-5" transform="translate(478.97 1105.89) rotate(8.29)">i</text><text class="cls-5" transform="translate(545.94 1115.82) rotate(-1.38)">n</text><text class="cls-5" transform="translate(667.07 1109.43) rotate(-13.79)">e</text><text class="cls-5" transform="translate(768.92 1081.29) rotate(-23.79)"> </text><text class="cls-5" transform="translate(839.54 1048.99) rotate(-32.8)">s</text><text class="cls-5" transform="matrix(0.71, -0.7, 0.7, 0.71, 920.54, 995.4)">h</text><text class="cls-5" transform="matrix(0.53, -0.85, 0.85, 0.53, 1010.62, 900.21)">o</text><text class="cls-5" transform="translate(1068.72 800.85) rotate(-69.79)">p</text></svg>