<svg id="LOGO" xmlns="http://www.w3.org/2000/svg" viewBox="0 0 2060.51 535.46"><defs><style>.cls-1{fill:#545454;}.cls-2{fill:#ebebeb;}.cls-3{fill:#722f37;}</style></defs><rect id="RECTANGULO_TEXTO_EXTERNO" data-name="RECTANGULO TEXTO EXTERNO" class="cls-1" x="21.92" width="2038.59" height="535.46"/><rect id="RECTANGULO_TEXTO_INTERNO" data-name="RECTANGULO TEXTO INTERNO" class="cls-2" x="580.24" y="22.04" width="1455.77" height="492.27"/><g id="TEXTO"><g id="TWS"><path class="cls-3" d="M734.29,1049.61q0-8.8,9-8.8h133.2a9.05,9.05,0,0,1,6.2,2.3,8.23,8.23,0,0,1,2.6,6.5v30.6a10.06,10.06,0,0,1-2.4,6.4,7.78,7.78,0,0,1-6.4,3H743.29q-9,0-9-9.4Z" transform="translate(-79.21 -822.44)"/><path class="cls-3" d="M929.49,898.81a8.26,8.26,0,0,1,2.6-6.4,9.34,9.34,0,0,1,6.6-2.4h210.4a10.48,10.48,0,0,1,6.5,2.2,8.87,8.87,0,0,1,3.3,6.6v35a10.63,10.63,0,0,1-2.5,7q-2.51,3-7.3,3h-76v234a9.37,9.37,0,0,1-2.5,6.4,8.77,8.77,0,0,1-6.9,2.8h-39.4a9.5,9.5,0,0,1-6.5-2.6,8.44,8.44,0,0,1-2.9-6.6v-234h-76.2a9.11,9.11,0,0,1-6.6-2.5c-1.74-1.67-2.6-4.17-2.6-7.5Z" transform="translate(-79.21 -822.44)"/><path class="cls-3" d="M1294.69,1181.21q-2-4-3.9-8.2t-3.5-8.2q-26.4-66.8-52.71-132.9t-52.89-132.7a4.54,4.54,0,0,0-.31-1.6,4.76,4.76,0,0,1-.3-1.6q0-6,7.61-6h43.39q7,0,10,8l77.41,206.2,75-208.2q2-6,8.39-6h45.41q4.8,0,6.59,1.8a6.23,6.23,0,0,1,1.81,4.6v2.8l-40.81,106.2,37.81,98.6,79.19-206.4q2.8-7.61,10.81-7.6h41.8q4.8,0,6.7,1.8a6.07,6.07,0,0,1,1.89,4.6,4,4,0,0,1-.2,1.6v.8q-28.2,70.4-57.19,140.1t-57.2,140.1a19,19,0,0,1-.91,2,10.35,10.35,0,0,1-2,2.7,13.66,13.66,0,0,1-3.09,2.3,8.5,8.5,0,0,1-4.2,1h-31.41q-4.59,0-7-2.1a9,9,0,0,1-3-4.7q-10.39-26-20.69-51.6t-20.9-51.6l-38.8,96.8c-.54,1.47-1.17,3-1.91,4.6a21,21,0,0,1-2.59,4.3,13.47,13.47,0,0,1-3.41,3.1,7.86,7.86,0,0,1-4.29,1.2h-31.41a9.27,9.27,0,0,1-5.89-1.8A10.67,10.67,0,0,1,1294.69,1181.21Z" transform="translate(-79.21 -822.44)"/><path class="cls-3" d="M1803.28,969.21a9.35,9.35,0,0,1-4.8-1.3,47.09,47.09,0,0,1-5-3.5l-.4-.2a104.51,104.51,0,0,0-23.2-17,96.41,96.41,0,0,0-15.9-6.8,54.87,54.87,0,0,0-17.3-2.8,70.94,70.94,0,0,0-19.8,2.5,45,45,0,0,0-14.4,6.8,29.22,29.22,0,0,0-8.8,10.1,26.62,26.62,0,0,0-3,12.4,19.08,19.08,0,0,0,4.5,12.6,41.52,41.52,0,0,0,12.2,9.6,118.74,118.74,0,0,0,17.7,7.7q10,3.5,21,6.9,12.6,3.79,25,8.2a227.31,227.31,0,0,1,23.7,9.9,166.16,166.16,0,0,1,21.1,12.2,79.77,79.77,0,0,1,16.9,15.4,70.23,70.23,0,0,1,11.2,19.4,67,67,0,0,1,4.1,24.1q0,21.79-8.8,39.4a90,90,0,0,1-24.3,30.1,111.71,111.71,0,0,1-36.4,19.2,146.46,146.46,0,0,1-44.9,6.7,132.3,132.3,0,0,1-30.6-3.6,148.59,148.59,0,0,1-29.2-10.2,155.08,155.08,0,0,1-26.5-15.9,133.09,133.09,0,0,1-22.3-20.9v.2l-.4-.8q-4.4-5-4.4-9.2a8,8,0,0,1,1.2-4.2,23.91,23.91,0,0,1,3.6-4.4l6.6-6.6q3-2.6,6.4-5.8a87.51,87.51,0,0,1,6.8-5.8q3.4-2.59,6.3-4.4a9.72,9.72,0,0,1,4.7-1.8,8.48,8.48,0,0,1,5.2,1.8,37.48,37.48,0,0,1,4,3.4l.8.8h-.2a132.65,132.65,0,0,0,15.7,12.6,158.41,158.41,0,0,0,17.9,10.7,107.48,107.48,0,0,0,18.3,7.4,60.29,60.29,0,0,0,17.1,2.7,73.16,73.16,0,0,0,20.6-2.8,53.34,53.34,0,0,0,16.6-7.9,37.89,37.89,0,0,0,11-12.3,32.34,32.34,0,0,0,4-16,22.94,22.94,0,0,0-5.2-15.1,47.29,47.29,0,0,0-13.6-11,105.15,105.15,0,0,0-18.9-8.1q-10.5-3.4-21.1-6.4a319,319,0,0,1-42.7-16q-18.3-8.6-30.5-19.3a71.83,71.83,0,0,1-18.3-24,70.86,70.86,0,0,1-6.1-29.9,74.33,74.33,0,0,1,28.8-60.1q13.8-10.9,33.2-17t43.4-6.1a127.08,127.08,0,0,1,37,5.7,144.32,144.32,0,0,1,34.8,15.7q4.8,3,9.8,6.8t9.2,7.7a53.74,53.74,0,0,1,6.9,7.6c1.8,2.46,2.7,4.57,2.7,6.3a11.28,11.28,0,0,1-1.2,4.9,18.8,18.8,0,0,1-3,4.5l-6,6.4v-.2l-6.2,6.6a76.59,76.59,0,0,1-6.4,6.1c-2.13,1.8-4.07,3.3-5.8,4.5A8.27,8.27,0,0,1,1803.28,969.21Z" transform="translate(-79.21 -822.44)"/><path class="cls-3" d="M1897.68,1049.61q0-8.8,9-8.8h133.2a9.07,9.07,0,0,1,6.2,2.3,8.23,8.23,0,0,1,2.6,6.5v30.6a10.06,10.06,0,0,1-2.4,6.4,7.79,7.79,0,0,1-6.4,3h-133.2q-9,0-9-9.4Z" transform="translate(-79.21 -822.44)"/></g><g id="THE_WINE_STORE" data-name="THE WINE STORE"><path class="cls-3" d="M700.53,1215a3.14,3.14,0,0,1,1-2.41,3.56,3.56,0,0,1,2.48-.89h78.9a3.9,3.9,0,0,1,2.43.82,3.31,3.31,0,0,1,1.24,2.48v13.12a4,4,0,0,1-.94,2.63,3.34,3.34,0,0,1-2.73,1.12h-28.5v87.75a3.53,3.53,0,0,1-.94,2.4,3.3,3.3,0,0,1-2.59,1H736.08a3.52,3.52,0,0,1-2.44-1,3.14,3.14,0,0,1-1.09-2.47v-87.75H704a3.42,3.42,0,0,1-2.48-.94,3.72,3.72,0,0,1-1-2.81Z" transform="translate(-79.21 -822.44)"/><path class="cls-3" d="M804.18,1215a3.44,3.44,0,0,1,.85-2.29,2.92,2.92,0,0,1,2.36-1h15a3.58,3.58,0,0,1,2.39,1,3,3,0,0,1,1.12,2.33v38.84h50.33V1215a3.3,3.3,0,0,1,.89-2.33,3.1,3.1,0,0,1,2.39-1h14.73a4,4,0,0,1,2.58.86,2.85,2.85,0,0,1,1.08,2.36v104.85q0,3.3-3.51,3.3H879.46q-3.29,0-3.28-3.3v-45.37H825.85v45.37q0,3.3-3.66,3.3h-14.8q-3.21,0-3.21-3.07Z" transform="translate(-79.21 -822.44)"/><path class="cls-3" d="M922.15,1215.33q0-3.58,3.3-3.59h72.3a3.24,3.24,0,0,1,2.77,1.09,4.4,4.4,0,0,1,.83,2.74v13.25a3.49,3.49,0,0,1-.94,2.41,3.57,3.57,0,0,1-2.81,1.06H944.27V1255h41.1a3,3,0,0,1,2.4.64,3.37,3.37,0,0,1,.9,2.66v13.57a4,4,0,0,1-.75,2.41,2.74,2.74,0,0,1-2.4,1H944.27v27.23h55.28c1.4,0,2.32.3,2.77.9a4.68,4.68,0,0,1,.68,2.79V1320q0,3.16-3.3,3.16H925.45a3.72,3.72,0,0,1-2.33-.75,2.83,2.83,0,0,1-1-2.4Z" transform="translate(-79.21 -822.44)"/><path class="cls-3" d="M1101.32,1320.94c-.5-1-1-2-1.46-3.08s-.91-2.07-1.31-3.07q-9.9-25.05-19.77-49.84T1059,1215.19a1.7,1.7,0,0,0-.12-.61,1.71,1.71,0,0,1-.11-.59q0-2.25,2.85-2.25h16.28q2.63,0,3.75,3l29,77.32,28.13-78.07a3,3,0,0,1,3.15-2.25h17a3.51,3.51,0,0,1,2.48.67,2.34,2.34,0,0,1,.67,1.72v1.06l-15.3,39.82,14.18,37,29.7-77.41a4,4,0,0,1,4-2.84h15.67a3.63,3.63,0,0,1,2.51.67,2.26,2.26,0,0,1,.72,1.72,1.56,1.56,0,0,1-.08.61v.3q-10.57,26.4-21.45,52.53t-21.45,52.54a6,6,0,0,1-.34.75,3.63,3.63,0,0,1-.75,1,5,5,0,0,1-1.16.87,3.17,3.17,0,0,1-1.57.37H1155a3.83,3.83,0,0,1-2.62-.79,3.33,3.33,0,0,1-1.13-1.76q-3.9-9.75-7.76-19.35t-7.84-19.35l-14.55,36.3c-.2.55-.44,1.13-.71,1.72a7.84,7.84,0,0,1-1,1.62,5.15,5.15,0,0,1-1.27,1.16,3,3,0,0,1-1.61.45h-11.78a3.52,3.52,0,0,1-2.21-.67A4,4,0,0,1,1101.32,1320.94Z" transform="translate(-79.21 -822.44)"/><path class="cls-3" d="M1228.74,1215a3.48,3.48,0,0,1,.83-2.33,3,3,0,0,1,2.46-1h14.88a3.82,3.82,0,0,1,2.39.89,3,3,0,0,1,1.12,2.41v104.77q0,3.3-3.51,3.3H1232q-3.29,0-3.29-3.3Z" transform="translate(-79.21 -822.44)"/><path class="cls-3" d="M1274.87,1215.11a3.51,3.51,0,0,1,.86-2.4,3.09,3.09,0,0,1,2.44-1h17.25a4.33,4.33,0,0,1,2,.48,5,5,0,0,1,1.68,1.54q12.83,18.3,25.43,36.34t25.42,36.34v-71.86a3.34,3.34,0,0,1,1.13-2.09,3.27,3.27,0,0,1,2.17-.75h14.48a4,4,0,0,1,2.59.89,3,3,0,0,1,1.08,2.41v105q0,3.07-3.52,3.07h-16.28c-1.1,0-2.12-.67-3.07-2q-13.2-19.12-26.29-38.21T1296,1244.58v75.23a3.45,3.45,0,0,1-.79,2.48,3.56,3.56,0,0,1-2.66.82h-14.4a3.26,3.26,0,0,1-2.51-.86,3.36,3.36,0,0,1-.79-2.37Z" transform="translate(-79.21 -822.44)"/><path class="cls-3" d="M1395.62,1215.33q0-3.58,3.3-3.59h72.3a3.24,3.24,0,0,1,2.77,1.09,4.4,4.4,0,0,1,.83,2.74v13.25a3.53,3.53,0,0,1-.94,2.41,3.58,3.58,0,0,1-2.81,1.06h-53.33V1255h41.1a3,3,0,0,1,2.4.64,3.37,3.37,0,0,1,.9,2.66v13.57a4,4,0,0,1-.75,2.41,2.74,2.74,0,0,1-2.4,1h-41.25v27.23H1473c1.4,0,2.32.3,2.77.9a4.68,4.68,0,0,1,.68,2.79V1320q0,3.16-3.3,3.16h-74.25a3.72,3.72,0,0,1-2.33-.75,2.83,2.83,0,0,1-1-2.4Z" transform="translate(-79.21 -822.44)"/><path class="cls-3" d="M1604.79,1241.44a3.53,3.53,0,0,1-1.8-.49,17.12,17.12,0,0,1-1.87-1.32l-.15-.07a39.3,39.3,0,0,0-8.7-6.37,37.38,37.38,0,0,0-6-2.56,20.83,20.83,0,0,0-6.48-1.05,26.83,26.83,0,0,0-7.43.94,17.14,17.14,0,0,0-5.4,2.55,11.06,11.06,0,0,0-3.3,3.79,10,10,0,0,0-1.12,4.65,7.21,7.21,0,0,0,1.68,4.73,15.56,15.56,0,0,0,4.58,3.59,43.62,43.62,0,0,0,6.64,2.89c2.49.88,5.12,1.74,7.87,2.59q4.73,1.43,9.38,3.07a86.55,86.55,0,0,1,8.88,3.72,62,62,0,0,1,7.92,4.57,30,30,0,0,1,6.33,5.78,26,26,0,0,1,4.2,7.27,25,25,0,0,1,1.54,9,32.6,32.6,0,0,1-3.3,14.78,33.71,33.71,0,0,1-9.11,11.28,41.76,41.76,0,0,1-13.65,7.2,54.74,54.74,0,0,1-16.84,2.52,50.07,50.07,0,0,1-11.47-1.35,55.51,55.51,0,0,1-11-3.83,58.29,58.29,0,0,1-9.94-6,49.87,49.87,0,0,1-8.36-7.84v.07l-.15-.3a5.37,5.37,0,0,1-1.65-3.45,3,3,0,0,1,.45-1.57,8.92,8.92,0,0,1,1.35-1.65l2.47-2.47c.75-.65,1.55-1.38,2.4-2.18s1.7-1.52,2.55-2.18,1.64-1.2,2.36-1.64a3.71,3.71,0,0,1,1.77-.68,3.21,3.21,0,0,1,2,.68,13.92,13.92,0,0,1,1.5,1.27l.3.3h-.08a49.3,49.3,0,0,0,5.89,4.73,59.73,59.73,0,0,0,6.71,4,40.39,40.39,0,0,0,6.86,2.77,22.52,22.52,0,0,0,6.42,1,27.49,27.49,0,0,0,7.72-1,20,20,0,0,0,6.23-3,14.13,14.13,0,0,0,4.12-4.61,12.14,12.14,0,0,0,1.5-6,8.59,8.59,0,0,0-2-5.66,17.75,17.75,0,0,0-5.1-4.13,40.22,40.22,0,0,0-7.09-3q-3.93-1.26-7.91-2.39a118.89,118.89,0,0,1-16-6,48.67,48.67,0,0,1-11.44-7.24,26.88,26.88,0,0,1-6.86-9A26.52,26.52,0,0,1,1540,1241a27.84,27.84,0,0,1,10.8-22.54,38.5,38.5,0,0,1,12.45-6.38,54.32,54.32,0,0,1,16.28-2.28,47.83,47.83,0,0,1,13.87,2.13,54.32,54.32,0,0,1,13,5.89q1.8,1.13,3.68,2.55a44.59,44.59,0,0,1,3.45,2.89,19.32,19.32,0,0,1,2.58,2.85,3.51,3.51,0,0,1,.57,4.2,7.23,7.23,0,0,1-1.13,1.69l-2.25,2.39v-.07l-2.32,2.48a29.55,29.55,0,0,1-2.4,2.28c-.8.68-1.53,1.24-2.18,1.69A3.12,3.12,0,0,1,1604.79,1241.44Z" transform="translate(-79.21 -822.44)"/><path class="cls-3" d="M1633.37,1215a3.14,3.14,0,0,1,1-2.41,3.53,3.53,0,0,1,2.47-.89h78.9a3.9,3.9,0,0,1,2.44.82,3.31,3.31,0,0,1,1.24,2.48v13.12a4,4,0,0,1-.94,2.63,3.34,3.34,0,0,1-2.74,1.12h-28.5v87.75a3.52,3.52,0,0,1-.93,2.4,3.3,3.3,0,0,1-2.59,1h-14.77a3.5,3.5,0,0,1-2.44-1,3.14,3.14,0,0,1-1.09-2.47v-87.75h-28.58a3.4,3.4,0,0,1-2.47-.94,3.72,3.72,0,0,1-1-2.81Z" transform="translate(-79.21 -822.44)"/><path class="cls-3" d="M1732.51,1267.54a57.19,57.19,0,0,1,7.8-29,58.73,58.73,0,0,1,9-11.62,55.55,55.55,0,0,1,11.58-9,58.91,58.91,0,0,1,13.69-5.78,57.29,57.29,0,0,1,30.45,0,58.72,58.72,0,0,1,13.69,5.78,56.59,56.59,0,0,1,11.62,9,57.26,57.26,0,0,1,9,11.62,59.25,59.25,0,0,1,5.77,13.73,56.56,56.56,0,0,1,2.06,15.3,55.66,55.66,0,0,1-2.06,15.22,59.27,59.27,0,0,1-5.77,13.66,55.94,55.94,0,0,1-9,11.58,57.51,57.51,0,0,1-11.62,8.93,58.2,58.2,0,0,1-13.69,5.74,57.14,57.14,0,0,1-72.49-55.2Zm21.68-.16a36.53,36.53,0,0,0,2.74,14.18,35.79,35.79,0,0,0,7.5,11.48,35.4,35.4,0,0,0,11.25,7.72,35.93,35.93,0,0,0,28,0,35.4,35.4,0,0,0,18.82-19.2,37,37,0,0,0-7.54-39.79,35.76,35.76,0,0,0-11.28-7.76,35.93,35.93,0,0,0-28,0,35.18,35.18,0,0,0-11.25,7.76,36.72,36.72,0,0,0-10.24,25.61Z" transform="translate(-79.21 -822.44)"/><path class="cls-3" d="M1866.76,1215.26q0-3.52,3.3-3.52H1916a35.56,35.56,0,0,1,14.18,2.84,37.22,37.22,0,0,1,11.51,7.73,35.9,35.9,0,0,1,7.73,11.48,35.46,35.46,0,0,1,2.81,14,34.1,34.1,0,0,1-1.43,9.9,35.78,35.78,0,0,1-4,8.78,36.48,36.48,0,0,1-13.88,12.82l19.5,38.48a6,6,0,0,0,.53,1.5,3.45,3.45,0,0,1,.37,1.57c0,1.5-.87,2.25-2.62,2.25h-17.4a3.54,3.54,0,0,1-3.6-2.78l-18.15-36c-.8,0-1.67,0-2.59,0s-2.2,0-3.83,0h-16.53v35.47c0,2.16-1.15,3.23-3.45,3.23h-15.08a3.49,3.49,0,0,1-2.4-.79,3.06,3.06,0,0,1-.9-2.44Zm63.23,32.66a16.85,16.85,0,0,0-1.2-6.25,17.6,17.6,0,0,0-3.38-5.42,17.37,17.37,0,0,0-5.17-3.89,17,17,0,0,0-6.53-1.73l-5.13-.11q-2.52,0-5.22,0h-14.77v34.8h22.61a25.76,25.76,0,0,0,2.81-.16,17.21,17.21,0,0,0,6.49-1.64,16,16,0,0,0,5.06-3.78,17.49,17.49,0,0,0,3.27-5.39A17.8,17.8,0,0,0,1930,1247.92Z" transform="translate(-79.21 -822.44)"/><path class="cls-3" d="M1971.09,1215.33q0-3.58,3.3-3.59h72.3a3.24,3.24,0,0,1,2.77,1.09,4.4,4.4,0,0,1,.83,2.74v13.25a3.53,3.53,0,0,1-.94,2.41,3.58,3.58,0,0,1-2.81,1.06h-53.33V1255h41.1a3,3,0,0,1,2.4.64,3.37,3.37,0,0,1,.9,2.66v13.57a4,4,0,0,1-.75,2.41,2.74,2.74,0,0,1-2.4,1h-41.25v27.23h55.28c1.4,0,2.32.3,2.77.9a4.68,4.68,0,0,1,.68,2.79V1320q0,3.16-3.3,3.16h-74.25a3.72,3.72,0,0,1-2.33-.75,2.83,2.83,0,0,1-1-2.4Z" transform="translate(-79.21 -822.44)"/></g></g><rect id="RECTANGULO_LOGO_INTERNO" data-name="RECTANGULO LOGO INTERNO" class="cls-2" width="580.24" height="535.46"/><g id="DIBUJO"><path class="cls-3" d="M358.79,1127.17c20.83-10.41,45-3.32,57.74,10,14.36,15,16.64,35,5.92,58.29a33.28,33.28,0,0,0,3.83-1.75c11.83-7.54,18.34-18.79,19.09-32.33.79-14.22-.43-28.54-.8-42.82-.09-3.48-2.91-3.09-5.11-3.36-16.27-2.05-31.53-6.9-45-16.46-25.82-18.31-41.44-43.17-45.38-74.52-4.38-34.86.07-68.75,14.38-101.1,9.53-21.58,10.06-22,33.2-22q58,.06,116,.2c8.33,0,16.66.28,25,.37a10.8,10.8,0,0,1,10.34,6.5c10.72,21.55,16.51,44.49,19.79,68.22,3,21.56,2.66,42.85-4,63.74-7.77,24.25-20.21,45.26-42,59.57a86.29,86.29,0,0,1-35.82,13.1c-5.23.72-7.12,2.48-7.73,7.8-1.52,13.24-3.76,26.35-1.78,39.76,2.35,15.86,11.1,27.36,25.34,33.54,11.32,4.91,23.62,7.66,35.59,11,5.78,1.59,7.94,3.46,7.51,8.58-.42,4.91-3.64,7.92-9.09,7.92-19.66,0-39.32-.18-59-.23-31.16-.08-62.32-.09-93.48-.2-2.53,0-4.23.39-5.47,3-2.67,5.7-6.7,7.84-11.34,6.72a12.43,12.43,0,0,1-9.74-12.29,11.4,11.4,0,0,1,.77-4.37c8.32-18.17-6.24-33.28-23.62-35.08-14.59-1.5-25.43,5.19-30.34,18.31-4.55,12.11.07,25.91,11.18,34,7.13,5.17,15,4.69,23,3.48,3.78-.57,7.55-1.38,11.35-1.67,5.56-.43,8,3.07,5.9,8.22-3.54,8.56-10.25,13.38-19.27,13.5-7.18.09-14.39-1.54-22.09-2.47-.78,10.27-7,18-16.64,23.29a43.76,43.76,0,0,1-63.22-25.24c-.55-1.7-1.09-3.41-1.74-5.45-14,5.66-27.69,7-40.87-1.25a33.35,33.35,0,0,1-15.36-22.45c-5.52-27.37,9.1-46.21,39.43-51,1-4.84,1.51-9.84,3.1-14.47,5-14.53,18.93-24.15,34.81-19.83,14.45,3.94,29.79-9.49,31.78-25.79,2.92-23.83-21.68-33-37.49-28.29-18.29,5.48-26.71,23.28-18.87,40.46.69,1.51,1.92,3.06,1.89,4.56-.06,2.55-.2,5.67-1.64,7.49-2.09,2.61-5.31,2.07-8.1.09-6.95-4.91-11.11-11.65-11.78-20-1.6-20,5.73-35.86,23.33-46.21,3-1.78,3.85-3.16,2.67-6.56-4.91-14.21-3.52-28.94-3-43.56.32-9-.93-17.54-5.84-25.37-2.59-4.14-1.72-8.19,1.78-11.2s8-3.53,11.37-.42c11.48,10.56,25.69,15.76,39.88,21.13,19.84,7.51,37.85,17.92,52.63,33.48,15.89,16.7,20.34,43,7.05,63.52-.16.24-.11.63-.23,1.39C348,1107,354.54,1116,358.79,1127.17Zm98.08-204v.67c-23.33,0-46.65.06-70-.07-3.34,0-5.07.74-5.88,4.28-1.33,5.83-3.14,11.56-5,17.26-8.25,25.93-12,52.5-7.16,79.33,5.8,32.35,24.15,55.74,55.59,66.85,17.51,6.18,36,5.78,54.35,3,21.35-3.29,37.88-14,50-31.62,13.12-19.12,19.12-40.42,18.59-63.61-.56-24.86-4.53-49-14.26-72.05-1.33-3.14-3-4.09-6.28-4.07C503.53,923.21,480.2,923.15,456.87,923.15Zm-157.5,162.9c.05-9.28-3.2-17.33-8.56-24.82a156.21,156.21,0,0,1-10-16.56c-1.9-3.48.11-5.39,3.54-4.47,3.94,1.06,8.26,2.3,11.3,4.8,10.27,8.46,17.57,19.08,20,32.44.93,5.13,1.13,10.38,1.75,16.41,8.33-6.89,9.82-15.53,9-24.68-1-10.92-7.48-19-15.33-26-17.35-15.61-39.11-23-60-32-.19-.08-.56.24-1.08.47.46,9.53.5,19.19,1.52,28.74.7,6.54,2.56,13,4.34,19.36a5.83,5.83,0,0,0,4,3.36C276,1065.37,289.54,1072.16,299.37,1086.05ZM281.42,1202a47.11,47.11,0,0,1,8.34-24.43c4.71-6.8,4.19-14.08-1.4-20.25a12.34,12.34,0,0,0-14.77-3.14,43.08,43.08,0,0,1-27.28,2.79c-6.3-1.45-7.71-.72-10.44,5.11-3.51,7.51-1.63,13.3,4.06,18.91,4.36,4.3,7.52,9.88,10.83,15.13,1.24,2,1.37,4.61,1.72,5.88Zm102.28-1.74c18.94-5.42,27.88-17.29,26.05-33.83-1.55-14-12.4-23.46-27.64-24.68-13.25-1.06-22.93,8.65-24.63,17.94C373.93,1167.8,382.94,1181.22,383.7,1200.21ZM214,1232.3c14.25.17,24.54-8.91,24.73-21.82.2-13.52-8.93-23.35-21.79-23.47-15.07-.15-25.92,9.62-26.18,23.57C190.55,1223.59,199.69,1232.13,214,1232.3ZM272.48,1217c-15.21-.18-25.11,9.74-22.43,22.35a39.45,39.45,0,0,0,8.86,17.42c9.52,10.56,29.3,8.26,37.42-3.41,2.75-4,3.06-7.39,0-11.76-4.62-6.62-8.23-13.94-12.41-20.88a5.67,5.67,0,0,0-3.12-2.57A81.54,81.54,0,0,0,272.48,1217Zm23.21-79.34c7.72,3.7,12.94,10.38,16.88,18.33.47,1,2.53,1.71,3.74,1.58,6.25-.7,12.47-1.69,18.7-2.64,1.07-.17,2.76-.42,3-1.08,2.07-5.17,5.29-10.41,5.43-15.69.28-10.29-5.14-18-14.79-22.24a36.13,36.13,0,0,0-24.19-1.73Zm139.79,69h49c-12.25-9-21.67-19-26-32.62-3,5.93-5.33,12.21-9.06,17.5C445.57,1197.06,440.36,1201.54,435.48,1206.74Z" transform="translate(-79.21 -822.44)"/><path class="cls-3" d="M455.76,1083.59c-39.55-.48-70-26-78.67-68.22-2.31-11.26,3.41-21,15-27.21,12.35-6.61,25.52-7.69,38.76-4.28,12.69,3.27,25.15,7.51,37.54,11.82,18.22,6.35,35,1.74,51.48-6,1.3-.61,2.23-2,3.45-2.81,5.32-3.66,12.4-.72,12.55,5.67.64,26.62-4.92,51.39-24.31,71.06C497.2,1078.24,478.86,1083.36,455.76,1083.59Zm63.65-76.17c-9.55,2.21-18.94,5.05-28.54,6.46-14.94,2.19-28.48-3.6-41.93-9.07-12.48-5.07-25.18-8.37-38.88-6.87-16,1.75-21,9.16-16.07,24.24,9.1,27.57,30.31,43.57,59.51,46.23C495.13,1072.2,517.93,1038.75,519.41,1007.42Z" transform="translate(-79.21 -822.44)"/><path class="cls-3" d="M659.45,1357.91H79.21V822.44H659.45ZM637.29,844.83c-2-.09-3.8-.24-5.59-.24q-262.2,0-524.39-.1c-4.72,0-6.18,1.1-6.18,6q.23,239.19.17,478.39c0,6.57,0,6.59,6.42,6.59H637.29Z" transform="translate(-79.21 -822.44)"/></g></svg>