<?xml version="1.0" encoding="utf-8"?>
<!-- Generator: Adobe Illustrator 25.2.3, SVG Export Plug-In . SVG Version: 6.00 Build 0)  -->
<svg version="1.1" id="LOGO" xmlns="http://www.w3.org/2000/svg" xmlns:xlink="http://www.w3.org/1999/xlink" x="0px" y="0px"
	 viewBox="0 0 1159.4 1159.4" style="enable-background:new 0 0 1159.4 1159.4;" xml:space="preserve">
<style type="text/css">
	.st0{fill:#EBEBEB;}
	.st1{fill:#722F37;}
</style>
<rect id="RECTANGULO_LOGO_INTERNO_1_" x="37.5" y="79.1" class="st0" width="1100.6" height="1015.7"/>
<g id="DIBUJO">
	<path class="st1" d="M567.8,657.1c84.8-37.7,165.8,44.9,120.7,129.5c58.5-25.2,42.3-95,42-145.9c-0.2-6.6-5.5-5.9-9.7-6.4
		c-30.9-3.9-59.8-13.1-85.4-31.2C526.9,530.4,529.5,379,576.6,270c18.1-40.9,19.1-41.7,63-41.6c89.1,0.4,178.2-0.4,267.4,1.1
		c9.1,0.1,15.5,4.1,19.6,12.3c55.2,114.7,67.3,282.8-49.8,363.3c-20.7,13.5-43.7,21.5-67.9,24.8c-9.9,1.4-13.5,4.7-14.7,14.8
		c-2.9,25.1-7.1,50-3.4,75.4c6.2,59.6,67.3,72.3,115.6,84.4c22.1,3,17.2,32.1-3,31.3c-96.4-0.4-192.8-0.6-289.2-0.8
		c-4.8,0-8,0.7-10.4,5.8c-9.8,24.7-41,10.6-40-10.6c15.3-38.6-2.7-69.7-43.4-74.8c-85.8-7.7-76.3,123.9,7.3,105.8
		c7.2-1.1,14.3-2.6,21.5-3.2c31.1,0.3-1.5,45.1-25.4,41.2c-13.6,0.2-27.3-2.9-41.9-4.7c-16.9,82.9-141.6,65.6-154.8-14
		C211.8,930.8,168.5,754,295.4,738.8c2.2-37.7,29.4-76.8,71.9-65.1c84.5,6.6,79.4-124.5-10.8-102.6c-34.7,10.4-50.7,44.2-35.8,76.7
		c4.8,6.7,4.6,16.5,0.5,22.9c-15.3,14.2-38.9-23.7-37.7-37.8c-6.6-78.7,56.4-80.6,49.3-100.1c-17-42.5,7-90.6-16.8-130.7
		c-11-15.1,12.1-34.4,24.9-22c21.8,20,48.7,29.9,75.6,40.1c75.9,25.4,164.9,100.6,112.8,186.6C547.3,618.9,559.8,636,567.8,657.1z
		 M753.9,270.1c0,0.4,0,0.9,0,1.3c-44.2,0-88.5,0.1-132.7-0.1c-6.3,0-9.6,1.4-11.2,8.1c-2.5,11.1-6,21.9-9.4,32.7
		c-113.8,338.6,325.7,388.1,325,102.2c-1.1-47.2-8.6-92.9-27.1-136.6c-2.5-6-5.6-7.8-11.9-7.7C842.3,270.3,798.1,270.1,753.9,270.1z
		 M455.1,579.1c1.2-30.8-22.6-52.5-35.3-78.5c-3.6-6.6,0.2-10.2,6.7-8.5c44.4,11.4,61.9,59.4,62.6,101.8
		c15.8-13.1,18.6-29.5,17-46.8C495.6,485.8,412,455.5,361.3,438c1.1,30.6,1.1,61.8,11.1,91.2c0.8,2.7,4.7,6,7.6,6.4
		C410.8,539.9,436.5,552.8,455.1,579.1z M421.1,799c-1.5-37.2,38.8-56,13.2-84.8c-19.7-22-42.8,10.5-79.8-0.7
		c-12-2.7-14.6-1.4-19.8,9.7c-6.7,14.2-3.1,25.2,7.7,35.9c9.5,10.8,21.5,25.5,23.8,39.9C384.9,799,402.3,799,421.1,799z
		 M615.1,795.7c68.3-13.5,64.8-106.7-3-111c-25.1-2-43.5,16.4-46.7,34C596.5,734.2,613.6,759.6,615.1,795.7z M293.3,856.5
		c59.9,3.3,62-85.2,5.6-85.9C239.1,767.4,229.3,857,293.3,856.5z M404.1,827.6c-94.6,5.3-14,138.5,45.2,69c5.2-7.5,5.8-14,0-22.3
		c-8.8-12.6-15.6-26.5-23.5-39.6C422.1,827.3,408.8,828.7,404.1,827.6z M448.1,677.1c25.2,10.5,28.6,39.3,39.1,37.8
		c11.9-1.3,23.7-3.2,35.5-5c2-0.3,5.2-0.8,5.7-2c30.7-49.4-14.3-88-63.6-75.2C459.2,647.5,453.9,661.6,448.1,677.1z M713.3,808
		c30.5,0,60.6,0,92.9,0c-23.2-17-41.1-35.9-49.3-61.9C746.1,772.5,734.3,788.6,713.3,808z"/>
	<path class="st1" d="M751.7,574.5c-75-0.9-132.7-49.3-149.2-129.4c-9.6-50.4,62.1-72.8,102-59.7c61.3,16.7,106.8,45.8,168.9,11.1
		c10.1-11.1,28.6-12.3,30.4,5.4C910.4,492.1,851.9,580.5,751.7,574.5z M872.5,430c-51.3,15.2-84.3,19.2-133.7-5
		c-33.6-16.1-126.2-30.4-104.2,33C676.3,590.4,872.8,564.8,872.5,430z"/>
	<path class="st1" d="M1138.1,1094.8c-367.1,0-733.4,0-1100.6,0c0-338.4,0-676.8,0-1015.7c366.6,0,733.1,0,1100.6,0
		C1138.1,417.3,1138.1,755.6,1138.1,1094.8z M1096.1,121.6c-335.1-1.3-670.2,0-1005.3-0.6c-9,0-11.7,2.1-11.7,11.4
		c0.3,302.5,0.3,604.9,0.3,907.4c0,12.5,0,12.5,12.2,12.5c334.8,0,669.6,0,1004.5,0C1096.1,741.5,1096.1,431.9,1096.1,121.6z"/>
</g>
</svg>
