<svg xmlns="http://www.w3.org/2000/svg" viewBox="0 0 1159.45 1159.45"><defs><style>.cls-1{fill:#89726f;}.cls-2{fill:#dcdcdc;}.cls-3{fill:#722f37;}</style></defs><g id="Moneda"><circle id="Externo" class="cls-1" cx="579.72" cy="579.72" r="579.72"/><circle id="Interno" class="cls-2" cx="579.72" cy="579.72" r="565.13"/><g id="Tienda_de_vinos" data-name="Tienda de vinos"><path d="M412.68,778.57l7.17,9.21-.46.79a11.34,11.34,0,0,0-2.14-1.55,1.71,1.71,0,0,0-2.06,0,9.22,9.22,0,0,0-2,2.55l-12,20.16,66.2,39.16q4.1,2.43,6,2.65a3.68,3.68,0,0,0,2.94-.67,13.69,13.69,0,0,0,2.56-3.41l.79.46-12.42,21-.79-.46q2.07-4.1,1.4-5.84t-4.65-4.1L396,818.61l-11.46,19.33a15.32,15.32,0,0,0-1.93,4c-.12.73.27,1.37,1.18,1.91a10.07,10.07,0,0,0,2.35.82l-.47.79-11.53-1.86.47-.79a5.36,5.36,0,0,0,3.39-.51,14.2,14.2,0,0,0,2.74-3.72l30.42-51.31a20,20,0,0,0,2.2-4.61,3.64,3.64,0,0,0-1.12-3.32Z" transform="translate(-300.28 -500.28)"/><path d="M438.77,750.36l.74.55a9.37,9.37,0,0,0-1.94,3.47,3.51,3.51,0,0,0,.15,3.33,32.7,32.7,0,0,0,5.07,4.33l55,41.6c3,2.26,4.9,3.51,5.75,3.77a4.12,4.12,0,0,0,2.73-.16,9.41,9.41,0,0,0,3.47-3.22l.73.55L496,823.7l-.73-.55q2.73-3.6,2-5.53T491.65,812l-54.5-41.19c-3.4-2.58-5.88-3.94-7.42-4.09s-3.12,1-4.71,3.34l-.73-.56Z" transform="translate(-300.28 -500.28)"/><path d="M450.5,736.68l-.75-.71,38.63-41.25,9.05,8.46-.63.67q-6.29-3.37-8-3.3c-1.17.06-2.86,1.27-5.09,3.65l-20.27,21.65,29.45,27.57,18.82-20.09q2.79-3,3-4.31a2.68,2.68,0,0,0-.84-2.37l.63-.67,6.19,5.8-.62.67a3.1,3.1,0,0,0-2.72-.58A9.81,9.81,0,0,0,514,734.5l-19.31,20.63,20.27,19q4.59,4.29,7.41,5.35a5.55,5.55,0,0,0,5.06-.32,30.5,30.5,0,0,0,5.74-5.1L544,762.47q5.18-5.52,6.23-7.4a7.1,7.1,0,0,0,.93-4q-.12-2.13-3.39-6.27l.63-.67,9,8.43-42,44.86-.66-.63a10.36,10.36,0,0,0,2.36-4.26q.38-1.87-2.7-4.75l-53-49.6q-3.6-3.37-5.66-4.13T450.5,736.68Z" transform="translate(-300.28 -500.28)"/><path d="M566,631.75l13.92-10.43.55.73q-3.11,2.48-3.39,4.64c-.2,1.44.71,3.5,2.71,6.17l49,65.53L525.66,680.26l39.83,53.23a16.29,16.29,0,0,0,3.2,3.47,3.57,3.57,0,0,0,2.37.82,15.91,15.91,0,0,0,4.32-1.87l.55.74L562.11,747l-.55-.74q3.71-2.78,3.63-4.77c-.06-1.34-1.33-3.66-3.81-7l-36.44-48.69q-4.79-6.39-9.6-9.11t-11,2.4l-.55-.73,13.53-10.14,96.9,17-38-50.8q-3.07-4.11-5.22-3.91a8.89,8.89,0,0,0-4.43,1.91Z" transform="translate(-300.28 -500.28)"/><path d="M604,607.82l-.38-.83,37.55-17.1q14.34-6.52,23.66-8.06a44.16,44.16,0,0,1,17.69.49,37.6,37.6,0,0,1,15.4,7.91,42.13,42.13,0,0,1,11.25,15.17,47.94,47.94,0,0,1,4.24,19.29,50.56,50.56,0,0,1-3.42,19.53A38.53,38.53,0,0,1,700.25,659q-6.09,5.56-21,12.37l-38.44,17.5-.38-.83,1-.46q3-1.37,2.85-4.21t-3-9.17l-27.09-59.58q-3-6.66-4.8-7.53T604,607.82ZM632.24,596l-12.55,5.72,28.87,63.51q2.73,6,6.08,8c2.24,1.33,5.18,1.69,8.84,1.07a57.83,57.83,0,0,0,13.76-4.69q23-10.47,26.93-26.51t-2.41-30q-7.46-16.4-25.65-22.59T632.24,596Z" transform="translate(-300.28 -500.28)"/><path d="M765.83,598l-25.62,6.31-5.08,36.2a19.49,19.49,0,0,0-.27,4.72c.32,1.3,1.45,1.72,3.38,1.24l.22.89-13,3.19-.22-.88a7.55,7.55,0,0,0,4.07-2.36q1.45-1.71,2.27-7.57l11.92-87.6,1.57-.39,50.17,69.42a35.26,35.26,0,0,0,3.78,5q3.65,4.43,8.54,3.21l.22.89-20.38,5-.22-.88q2.77-.69,2.24-2.88a14.83,14.83,0,0,0-2.54-4.41,2.13,2.13,0,0,1-.6-.67q-.27-.55-.33-.54Zm-25.39,3.68,23.62-5.82L744.91,569Z" transform="translate(-300.28 -500.28)"/><path d="M851.45,536.43l0-.92,41.24,1.4q15.74.54,24.77,3.31a44.26,44.26,0,0,1,15.62,8.32,37.69,37.69,0,0,1,10.27,13.94,42.06,42.06,0,0,1,3.32,18.58,48.06,48.06,0,0,1-4.78,19.17,50.85,50.85,0,0,1-11.76,16,38.76,38.76,0,0,1-15.24,8.89q-7.93,2.26-24.34,1.7l-42.21-1.43,0-.91,1.1,0c2.19.08,3.67-.76,4.42-2.5s1.21-4.93,1.37-9.57l2.27-65.4q.26-7.32-.95-8.88C855.81,537.08,854.09,536.52,851.45,536.43Zm30.59,2L868.25,538l-2.41,69.72c-.15,4.4.47,7.68,1.88,9.87s3.89,3.82,7.44,4.89a58.21,58.21,0,0,0,14.41,1.93q25.24.86,35.92-11.76t11.19-27.93q.63-18-12.92-31.64T882,538.44Z" transform="translate(-300.28 -500.28)"/><path d="M972.11,544.61l.23-1,55.21,12.07-2.66,12.1-.89-.19c-.21-4.75-.63-7.62-1.27-8.59s-2.55-1.81-5.73-2.5l-29-6.33-8.66,39.4,26.89,5.88c2.67.58,4.41.7,5.24.36a2.69,2.69,0,0,0,1.61-1.93l.89.2-1.82,8.28-.89-.19a3.12,3.12,0,0,0-.89-2.63,9.71,9.71,0,0,0-4-1.49l-27.6-6-6,27.13q-1.35,6.14-.82,9.1a5.52,5.52,0,0,0,2.86,4.18,30.8,30.8,0,0,0,7.32,2.32l15.48,3.39a55,55,0,0,0,9.55,1.56,7.22,7.22,0,0,0,3.93-1.26q1.75-1.2,3.65-6.12l.9.2-2.65,12L953,631.4l.2-.89a10.36,10.36,0,0,0,4.88-.15q1.78-.65,2.7-4.75l15.57-70.89q1.07-4.83.66-7C976.78,546.31,975.13,545.27,972.11,544.61Z" transform="translate(-300.28 -500.28)"/><path d="M1087.34,676.07l-1-.5,6-85.21q.6-9-.75-11.27a8.11,8.11,0,0,0-3.43-3.28l.41-.82,18.64,9.12-.4.82q-2.39-1.38-3.41.71a6,6,0,0,0-.52,1.92L1097.52,662l55.18-50a6.53,6.53,0,0,0,1.47-1.77c.6-1.23-.07-2.26-2-3.07l.4-.82,12.11,5.92-.4.82a12.06,12.06,0,0,0-2.83-.94c-1-.22-2.47.26-4.26,1.42s-2.73,1.79-2.82,1.88Z" transform="translate(-300.28 -500.28)"/><path d="M1197.3,634.69l-.5.76a9.42,9.42,0,0,0-3.6-1.69c-1.47-.38-2.58-.26-3.31.38a33.33,33.33,0,0,0-4,5.35l-37.7,57.78q-3.06,4.69-3.36,6a4.14,4.14,0,0,0,.34,2.71,9.48,9.48,0,0,0,3.46,3.25l-.5.76-20.07-13.13.5-.76q3.78,2.48,5.65,1.62c1.24-.57,3-2.58,5.23-6l37.33-57.21q3.5-5.37,3.56-7.69c0-1.56-1.18-3-3.65-4.46l.5-.77Z" transform="translate(-300.28 -500.28)"/><path d="M1271,694l13.1,11.44-.6.69q-3.06-2.52-5.24-2.35c-1.45.11-3.27,1.43-5.46,3.94L1219,769.44l-3.84-104.71-43.69,50.1a16.45,16.45,0,0,0-2.72,3.86,3.57,3.57,0,0,0-.3,2.49,15.88,15.88,0,0,0,2.72,3.84l-.6.69-13-11.36.6-.69q3.49,3,5.43,2.55c1.29-.33,3.29-2.06,6-5.19l40-45.83q5.25-6,6.9-11.3t-4.66-10.3l.6-.69L1225.13,654l3.61,98.39,41.71-47.82q3.36-3.87,2.73-5.92a8.9,8.9,0,0,0-2.8-3.94Z" transform="translate(-300.28 -500.28)"/><path d="M1333.54,764.44q11.34,15.13,9.34,31.66t-15.79,26.82q-17.74,13.26-38.21,11.19t-34.26-20.48q-11.2-15-8.56-31.79a40.42,40.42,0,0,1,16.33-27.07,55.29,55.29,0,0,1,22.4-9.59,48.21,48.21,0,0,1,26.22,2Q1324.06,751.79,1333.54,764.44Zm-70.61,52.34a37.72,37.72,0,0,0,15,11.68,37,37,0,0,0,19.5,3.17,34.66,34.66,0,0,0,17.49-6.59,42.47,42.47,0,0,0,14.82-19.81,49.56,49.56,0,0,0,2.52-24.53q-1.83-12.53-7.51-20.1-8-10.7-22.61-13.39a32.72,32.72,0,0,0-26.57,6.27q-15.3,11.44-18.91,30.75T1262.93,816.78Z" transform="translate(-300.28 -500.28)"/><path d="M1387.81,859.49l-8,8.92-.44-.6s.59-1.57,1.66-4.65a23.3,23.3,0,0,0-1.46-19q-4.2-8.19-11.37-10.6a17.17,17.17,0,0,0-13.79,1,14.8,14.8,0,0,0-6.53,6.19q-2.14,3.93-1.31,12.55,2.16,14.44,2.4,20.06a29.06,29.06,0,0,1-2.6,12.37q-2.83,6.77-10.65,10.77a28.31,28.31,0,0,1-6.6,2.42,23.3,23.3,0,0,1-7,.47,28.39,28.39,0,0,1-7.07-1.49,21.28,21.28,0,0,1-5.88-3.06,29.11,29.11,0,0,1-5.72-6.81c-2.2-3.31-3.58-5.53-4.16-6.65L1288.34,860l23.25-11.9.42.82q-11.52,6-13.35,13.68t3.93,18.9q5.23,10.21,12.78,13a17.05,17.05,0,0,0,14.35-.65,14.48,14.48,0,0,0,6.09-5.44,19.73,19.73,0,0,0,2.46-7.78q.49-4.44-1.06-15.28t-1-15.79a20.77,20.77,0,0,1,4.08-9.94,24,24,0,0,1,8.63-7.57,23.59,23.59,0,0,1,18.85-1.59q9.57,3.16,14.89,13.53a50.84,50.84,0,0,1,3.53,9.17,49.06,49.06,0,0,1,1.48,5.82A1.1,1.1,0,0,0,1387.81,859.49Z" transform="translate(-300.28 -500.28)"/></g><g id="Nombre"><path d="M393.64,1326l.94-.57q2.6,4.33,5,4.64t6.36-2.06l75.68-45.43q4-2.41,5.2-4.49c.79-1.39.23-3.78-1.7-7.18l.94-.56,14.89,24.8-.94.57c-1.38-2.31-2.64-3.74-3.78-4.31a5,5,0,0,0-3.17-.58,23.58,23.58,0,0,0-5.66,2.8l-64.93,39q-8.36,5-9.37,11.08t4.82,15.79l6.78,11.29q4.89,8.14,11.19,9.53t17.67-4.85l.57.94-22.23,13.35Z" transform="translate(-300.28 -500.28)"/><path d="M567.45,1381.21q15.59,16.5,15.46,36.47t-15.14,34.15q-19.34,18.27-44,18.6t-43.63-19.74q-15.39-16.29-14.55-36.74a48.57,48.57,0,0,1,15.75-34.52q10.05-9.51,25.38-14.51a57.68,57.68,0,0,1,31.51-1.25Q554.42,1367.42,567.45,1381.21Zm-77,72.1a45,45,0,0,0,19.42,11.88,44.38,44.38,0,0,0,23.68,1.11A41.68,41.68,0,0,0,553.5,1456a51,51,0,0,0,15-25.66,59.65,59.65,0,0,0-.35-29.59q-3.92-14.7-11.71-23-11-11.67-28.77-12.87a39.23,39.23,0,0,0-30.81,11.12q-16.67,15.73-18.32,39.27T490.48,1453.31Z" transform="translate(-300.28 -500.28)"/><path d="M607.14,1425.23l.58-.94,26.13,16q9.93,6.06,14.11,9.21a28.78,28.78,0,0,1,7.32,8.47,19.76,19.76,0,0,1,2.94,11,24.41,24.41,0,0,1-3.94,11.81,27.91,27.91,0,0,1-12.38,10.78,40.33,40.33,0,0,1-18.46,3.46l.4,14q-.17,5,1.26,23.31t4.72,24.11a23.29,23.29,0,0,0,8,8.7q4.62,2.82,12.8,2.92l-.39,1.48Q639,1571,627,1563.67a24.49,24.49,0,0,1-10.85-13.12q-2.86-8.23-4.15-38.18a.44.44,0,0,1,0-.33l-.56-19.89-8.36-4.76-7.45-4.55L574.17,1518q-2.59,4.24-2.61,6.77t4.27,5.13l-.58.94-23.75-14.5.57-.94c3,1.68,5.26,2.18,6.68,1.5s3.18-2.74,5.29-6.2l44.66-73.15a18.64,18.64,0,0,0,2.66-6.48C611.69,1429.17,610.29,1427.21,607.14,1425.23Zm16.34,12-26.37,43.19,9.64,5.89q11.4,7,20.2,5t14.14-10.76a32,32,0,0,0,4.41-19.41q-.79-10.91-14.44-19.24Z" transform="translate(-300.28 -500.28)"/><path d="M707.55,1483.11l.39-1.18,64.28,21.63-4.74,14.09-1-.35q.55-8.54-.4-10.41c-.64-1.24-2.81-2.49-6.51-3.73L725.8,1491.8l-15.45,45.88,31.31,10.54c3.1,1,5.16,1.42,6.19,1.12a3.23,3.23,0,0,0,2.17-2.09l1,.35-3.24,9.65-1-.35a3.72,3.72,0,0,0-.72-3.26,11.86,11.86,0,0,0-4.53-2.29l-32.13-10.82-10.64,31.58q-2.4,7.16-2.15,10.76a6.65,6.65,0,0,0,2.86,5.36,37,37,0,0,0,8.44,3.73l18,6.07q8.6,2.9,11.18,3.11a8.55,8.55,0,0,0,4.85-1q2.25-1.2,5.15-6.83l1,.35-4.72,14-69.9-23.53.35-1a12.2,12.2,0,0,0,5.84.45q2.22-.52,3.83-5.31l27.78-82.55c1.26-3.74,1.83-6.49,1.69-8.23S711.06,1484.29,707.55,1483.11Z" transform="translate(-300.28 -500.28)"/><path d="M880,1517.3l17,1.46-.1,1.09q-8.64-.3-9.37,8.24a40.2,40.2,0,0,0,0,5.08l4.3,82.4q.5,6.18,1.62,8c.76,1.21,2.46,2,5.12,2.53l-.1,1.09-24.15-2.08.09-1.09c3.21.37,5-1,5.23-4.23a39.61,39.61,0,0,0-.07-4.31l-4.23-79.89-46.19,85.63-.73-.06L797.25,1529l-17.74,78.45a26.94,26.94,0,0,0-.65,4.1q-.36,4.2,4.56,4.62l-.09,1.09-16.42-1.41.09-1.09c2.48.21,4.1,0,4.86-.5a6,6,0,0,0,1.89-2.78,26.87,26.87,0,0,0,1.26-4.41l19.77-85.78c-1.58-5-3.34-8.06-5.25-9.2a13.2,13.2,0,0,0-5.66-2l.1-1.09,20.27,1.74L834.47,1602Z" transform="translate(-300.28 -500.28)"/><path d="M980.81,1504.21l.22,1.08a11.19,11.19,0,0,0-4.5,1.58c-1.59.92-2.42,2-2.51,3.12a39.07,39.07,0,0,0,1.11,7.91l16.35,81.15q1.32,6.6,2.16,8a5,5,0,0,0,2.57,2q1.74.66,5.69-.14l.22,1.08-28.22,5.68-.22-1.08c3.55-.71,5.61-1.83,6.2-3.37s.39-4.72-.58-9.55l-16.19-80.36q-1.51-7.54-3.42-9.58t-6.88-.74l-.22-1.08Z" transform="translate(-300.28 -500.28)"/><path d="M990.34,1504.1l-.36-1,29.09-10q15.51-5.34,23.73-4.29t13.22,5.1q5,4.05,7.92,12.52,4.47,13-2.23,22.56t-22.08,14.59l-.36-1q9.69-3.35,13.7-11.38t.67-17.74a31.1,31.1,0,0,0-7.56-12.39,21.84,21.84,0,0,0-11.34-6q-6.37-1.2-17.32,2.56l-7.27,2.51,30.05,87.26q2.55,7.41,4.7,8.25c1.43.56,3.7.31,6.79-.75l.36,1-26.94,9.27-.36-1q7.2-2.49,4.94-9.06l-29.07-84.43q-1.86-5.38-3.86-6.68C995.44,1503,993.29,1503.08,990.34,1504.1Z" transform="translate(-300.28 -500.28)"/><path d="M1108.49,1453.29l11,9.35-.7.55s-1.9-.65-5.64-1.83a28.07,28.07,0,0,0-22.79,2.37q-9.69,5.31-12.34,14a20.59,20.59,0,0,0,1.65,16.51,17.85,17.85,0,0,0,7.64,7.63q4.8,2.43,15.11,1.15,17.27-3.06,24-3.53a35.07,35.07,0,0,1,14.93,2.7q8.22,3.18,13.28,12.42a33.05,33.05,0,0,1,3.12,7.84,27.64,27.64,0,0,1,.8,8.32,33.37,33.37,0,0,1-1.55,8.53,25.32,25.32,0,0,1-3.47,7.15c-1.42,2-4.09,4.34-8,7.09s-6.51,4.48-7.84,5.2l-25.24,13.83-15.06-27.5,1-.52q7.62,13.6,16.88,15.56t22.54-5.34q12.07-6.6,15.21-15.76a20.47,20.47,0,0,0-1.26-17.17,17.34,17.34,0,0,0-6.74-7.13,23.4,23.4,0,0,0-9.41-2.69q-5.34-.46-18.31,1.77t-18.91,1.69a24.93,24.93,0,0,1-12.07-4.57,28.88,28.88,0,0,1-9.37-10.1,28.32,28.32,0,0,1-2.54-22.55q3.48-11.58,15.74-18.3a60.54,60.54,0,0,1,10.88-4.54,58.18,58.18,0,0,1,6.94-2A1.34,1.34,0,0,0,1108.49,1453.29Z" transform="translate(-300.28 -500.28)"/><path d="M1270.21,1461.66l-15.56,13.25-10.77-12.67q-.63,23.33-17.06,37.31-12.21,10.4-25.2,9.62t-23.3-12.87l-41.87-49.2q-3.79-4.45-5.88-4.76c-1.38-.2-3.38.81-6,3l-.71-.84,21.81-18.56.71.84q-3.47,2.94-4,5.24c-.33,1.53.66,3.66,3,6.37l38.4,45.12q12.06,14.18,23.84,14.58a28.59,28.59,0,0,0,20.25-6.79q13.3-11.34,13.41-32.1L1194,1403.62q-6.23-7.3-8.67-7.58c-1.63-.18-3.35.5-5.18,2l-.78.66-.71-.83,21.64-18.42.71.84c-2.54,2.42-3.85,4.3-3.9,5.63s.8,3,2.57,5.11l56.92,66.89a28,28,0,0,0,4.8,4.85,5,5,0,0,0,3.32.69q1.89-.23,4.79-2.68Z" transform="translate(-300.28 -500.28)"/><path d="M1262.43,1292.34l9.55-14.1.91.62q-4.48,7.4,2.62,12.2a38.78,38.78,0,0,0,4.43,2.47l74,36.44q5.64,2.58,7.77,2.47t4.69-3.23l.91.62-13.59,20.07-.91-.62q2.84-3.93-1.14-6.62a38,38,0,0,0-3.8-2l-71.81-35.27,52.23,82.09-.41.6-95.61-17.78,59.84,53.74a26.31,26.31,0,0,0,3.26,2.57q3.49,2.36,6.26-1.73l.91.62-9.24,13.64-.91-.61c1.4-2.07,2-3.56,1.93-4.49a6,6,0,0,0-1.5-3,27.52,27.52,0,0,0-3.24-3.25l-65.24-59.09q-7.69-1.58-10.6.1a13.18,13.18,0,0,0-4.46,4l-.91-.62,11.41-16.84,94.34,18.07Z" transform="translate(-300.28 -500.28)"/></g></g><g id="Copa"><g id="Grupo"><g id="Base"><path d="M799,1440.94H961a15.76,15.76,0,0,0,15.23-11.42,26.91,26.91,0,0,0,0-13.84A15.77,15.77,0,0,0,961,1404.26H799a15.77,15.77,0,0,0-15.23,11.42,26.91,26.91,0,0,0,0,13.84A15.76,15.76,0,0,0,799,1440.94Z" transform="translate(-300.28 -500.28)"/><path d="M880,1406.14c6.43,0,8.14-2,8.14-2V1381H871.86v23.21S873.57,1406.14,880,1406.14Z" transform="translate(-300.28 -500.28)"/><polygon points="587.87 880.71 584.7 879.06 574.74 879.06 571.58 880.71 587.87 880.71"/><polygon points="577.6 799.24 588.91 803.46 588.91 797.81 586.02 792.14 583.76 790.74 571.48 786.1 572.01 792.89 573.68 796.74 576.35 798.59 577.6 799.24"/><polygon points="577.6 765.37 588.91 769.59 588.91 763.95 586.02 758.28 583.76 756.88 571.48 752.23 572.01 759.03 573.68 762.87 576.35 764.72 577.6 765.37"/><polygon points="577.6 731.5 588.91 735.73 588.91 730.08 586.02 724.41 583.76 723.01 571.48 718.37 572.01 725.16 573.68 729.01 576.35 730.86 577.6 731.5"/><polygon points="577.6 833.1 588.91 837.32 588.91 831.68 586.02 826.01 583.76 824.61 571.48 819.97 572.01 826.76 573.68 830.61 576.35 832.46 577.6 833.1"/><path d="M867.66,1325.66h0c3.27,5.36,10.22,7.72,10.22,7.72-4.4-3.9-5-10.73.76-14.06l12-6.91a10,10,0,0,0,3.66-13.67C891,1293.38,884,1291,884,1291c4.4,3.89,5,10.73-.76,14.06l-12,6.91A10,10,0,0,0,867.66,1325.66Z" transform="translate(-300.28 -500.28)"/><path d="M867.66,1291.79h0c3.27,5.36,10.22,7.72,10.22,7.72-4.4-3.89-5-10.73.76-14.06l12-6.9a10,10,0,0,0,3.66-13.67c-3.27-5.37-10.22-7.73-10.22-7.73,4.4,3.9,5,10.74-.76,14.07l-12,6.9A10,10,0,0,0,867.66,1291.79Z" transform="translate(-300.28 -500.28)"/><path d="M867.66,1257.92h0c3.27,5.37,10.22,7.73,10.22,7.73-4.4-3.9-5-10.73.76-14.06l12-6.91a10,10,0,0,0,3.66-13.67c-3.27-5.36-10.22-7.72-10.22-7.72,4.4,3.89,5,10.73-.76,14.06l-12,6.9A10,10,0,0,0,867.66,1257.92Z" transform="translate(-300.28 -500.28)"/><path d="M867.66,1224.06h0c3.27,5.36,10.22,7.72,10.22,7.72-4.4-3.89-5-10.73.76-14.06l12-6.91c4.78-2.76,43.18-28.47,40.42-33.26-3.27-5.36-51.51,3.46-51.51,3.46,4.4,3.9,9.54,19.15,3.77,22.47l-12,6.91A10,10,0,0,0,867.66,1224.06Z" transform="translate(-300.28 -500.28)"/><path d="M885,1379.34v-24.89c.16-3.84.88-5.41,3.68-7h0l1.93-1.11a10,10,0,0,0,3.66-13.67c-3.27-5.37-10.22-7.73-10.22-7.73,3.47,3.08,4.58,8,2.05,11.56a8.75,8.75,0,0,1-2.81,2.51l-2.32,1.34h0a15.84,15.84,0,0,0-1.68,1l-.12.08a8.11,8.11,0,0,0-4.14,7v31Z" transform="translate(-300.28 -500.28)"/></g><g id="Vino"><path class="cls-3" d="M1008.94,899.24c0-1.33-3.38,13.39-3.81,14.68-35.35,104-130.86,133.26-151.24,134.47a.61.61,0,0,1-.24-1.19c52.06-19,50.67-74.26,43-92.32a.77.77,0,0,0-1.47.34c2,76.14-102.7,91.8-136.38,34.32a1,1,0,0,0-1.92.53c2.45,89.22,74.63,203.38,132.3,194.5,43.4-6.67,103.86-105.33,110.19-182.15C999.62,999.49,1009.39,947.29,1008.94,899.24Z" transform="translate(-300.28 -500.28)"/><path class="cls-3" d="M793.1,1009.46a.51.51,0,0,0,.55-.85c-6.65-6-23.52-24.71-13.72-53.07,9-26.12-24.8-30.72-21.21,3.68C762.2,992.45,784.78,1005.68,793.1,1009.46Z" transform="translate(-300.28 -500.28)"/><path class="cls-3" d="M943.73,905.75a.51.51,0,0,0,1,0c.78-8.13,4-26.37,17.46-38.19,16.52-14.51-2.31-28.47-14.31-10.58C939,870.29,942.07,895.79,943.73,905.75Z" transform="translate(-300.28 -500.28)"/><path class="cls-3" d="M905.3,1007.87c9.05-10,35-42.45,23.42-72-10.19-26-36.64-15.91-26.57,7.63,13.51,31.58,5.84,55.57,2.3,63.78A.51.51,0,0,0,905.3,1007.87Z" transform="translate(-300.28 -500.28)"/><path class="cls-3" d="M916.85,1015.75c17.44-12.08,69.57-52.88,71.88-106.1,2-47-37.8-42.67-38.55.19-1,57.5-24.79,92.93-34.11,104.64C915.47,1015.24,916.1,1016.27,916.85,1015.75Z" transform="translate(-300.28 -500.28)"/><path class="cls-3" d="M921.53,875.46c7.22,2.93,11.45,9.09,13.41,12.72a.51.51,0,0,0,1-.32c-.77-4.65-3-13.42-9.47-19.4C919.1,861.65,913.71,872.29,921.53,875.46Z" transform="translate(-300.28 -500.28)"/><path class="cls-3" d="M801,1012.66a.51.51,0,0,0,1,.05c1.09-5.3,2.48-16.44-2.38-26.12-5.35-10.63-15.77-1-8.37,5.76C798.32,998.86,800.37,1007.93,801,1012.66Z" transform="translate(-300.28 -500.28)"/><path class="cls-3" d="M984,869.61c7.78,8.36,9.54,19.56,9.92,25.08a.51.51,0,0,0,1,.09c1.47-6.06,3.71-19.45-1.35-31.47C988.16,850.37,976.11,861.1,984,869.61Z" transform="translate(-300.28 -500.28)"/><path class="cls-3" d="M918.59,906.16c12.69,8.72,16.91,22,18.34,27.79a.51.51,0,0,0,1-.06c.88-7.07,2.09-26.41-7.42-37.35C917.86,882,902.33,895,918.59,906.16Z" transform="translate(-300.28 -500.28)"/></g><path id="Copa-2" data-name="Copa" d="M1010,918.8C1010,1076,951.8,1203.48,880,1203.48c-70.22,0-127.43-121.78-130-274.14,13.26,120,67.62,250.72,130,250.72,70.5,0,125.9-155.44,128.9-298.82Q1010,899.69,1010,918.8Z" transform="translate(-300.28 -500.28)"/></g></g></svg>